grf
version=1
nRows=14
nColumns=37
inDegrees=no
endheader
time	ground_force_1_vx	ground_force_1_vy	ground_force_1_vz	ground_force_1_px	ground_force_1_py	ground_force_1_pz	ground_moment_1_mx	ground_moment_1_my	ground_moment_1_mz	ground_force_2_vx	ground_force_2_vy	ground_force_2_vz	ground_force_2_px	ground_force_2_py	ground_force_2_pz	ground_moment_2_mx	ground_moment_2_my	ground_moment_2_mz	ground_force_3_vx	ground_force_3_vy	ground_force_3_vz	ground_force_3_px	ground_force_3_py	ground_force_3_pz	ground_moment_3_mx	ground_moment_3_my	ground_moment_3_mz	ground_force_4_vx	ground_force_4_vy	ground_force_4_vz	ground_force_4_px	ground_force_4_py	ground_force_4_pz	ground_moment_4_mx	ground_moment_4_my	ground_moment_4_mz
      0.00000000	      0.00000000	     -0.00000000	      0.00000000	      0.00000000	      0.00000000	      0.00000000	      0.00000000	      0.00000000	      0.00000000	    -11.01896954	     95.32349396	   -503.29306030	   -294.53991149	  -1200.28756341	      0.00000000	      0.00000000	      0.00000000	   3498.38422547	     -6.40984864	    -92.20783941	   -456.34118652	   -319.80404289	   -597.87362905	      0.00000000	      0.00000000	     -0.00000000	  -3931.95185145	      0.00000000	     -0.00000000	      0.00000000	      0.00000000	      0.00000000	      0.00000000	      0.00000000	      0.00000000	      0.00000000
      0.01000000	      0.00000000	     -0.00000000	      0.00000000	      0.00000000	      0.00000000	      0.00000000	      0.00000000	      0.00000000	      0.00000000	     -9.49922085	     96.05435181	   -505.31558228	   -296.41103066	  -1200.10155433	      0.00000000	      0.00000000	      0.00000000	   3529.53957435	     -5.54517938	    -92.82609510	   -459.05151367	   -321.54443386	   -598.26071104	      0.00000000	      0.00000000	     -0.00000000	  -3904.70240349	      0.00000000	     -0.00000000	      0.00000000	      0.00000000	      0.00000000	      0.00000000	      0.00000000	      0.00000000	      0.00000000
      0.02000000	      0.00000000	     -0.00000000	      0.00000000	      0.00000000	      0.00000000	      0.00000000	      0.00000000	      0.00000000	      0.00000000	     -7.47625303	     95.80738831	   -506.98211670	   -298.27606103	  -1199.37079190	      0.00000000	      0.00000000	      0.00000000	   3537.81470436	     -4.45697790	    -93.39869651	   -461.57455444	   -322.42936119	   -598.49160065	      0.00000000	      0.00000000	     -0.00000000	  -3958.88793894	      0.00000000	     -0.00000000	      0.00000000	      0.00000000	      0.00000000	      0.00000000	      0.00000000	      0.00000000	      0.00000000
      0.03000000	      0.00000000	     -0.00000000	      0.00000000	      0.00000000	      0.00000000	      0.00000000	      0.00000000	      0.00000000	      0.00000000	     -5.30582571	     96.59178162	   -511.48849487	   -299.95864650	  -1199.77428972	      0.00000000	      0.00000000	      0.00000000	   3374.25430652	     -2.79414852	    -93.59977698	   -463.84890747	   -324.72291791	   -599.92423867	      0.00000000	      0.00000000	     -0.00000000	  -3967.56234292	      0.00000000	     -0.00000000	      0.00000000	      0.00000000	      0.00000000	      0.00000000	      0.00000000	      0.00000000	      0.00000000
      0.04000000	      0.00000000	     -0.00000000	      0.00000000	      0.00000000	      0.00000000	      0.00000000	      0.00000000	      0.00000000	      0.00000000	     -3.51015472	     96.46508026	   -516.90814209	   -302.54570380	  -1199.12243490	      0.00000000	      0.00000000	      0.00000000	   3491.62305159	     -1.48592335	    -94.74706255	   -467.60110474	   -326.51350548	   -601.01566688	      0.00000000	      0.00000000	     -0.00000000	  -4040.74143519	      0.00000000	     -0.00000000	      0.00000000	      0.00000000	      0.00000000	      0.00000000	      0.00000000	      0.00000000	      0.00000000
      0.05000000	      0.00000000	     -0.00000000	      0.00000000	      0.00000000	      0.00000000	      0.00000000	      0.00000000	      0.00000000	      0.00000000	     -1.56385875	     96.59107208	   -522.81048584	   -304.58792628	  -1198.66517822	      0.00000000	      0.00000000	      0.00000000	   3443.67110946	     -0.28775996	    -95.43135831	   -472.92324829	   -328.19333921	   -601.46247112	      0.00000000	      0.00000000	     -0.00000000	  -3939.56308447	      0.00000000	     -0.00000000	      0.00000000	      0.00000000	      0.00000000	      0.00000000	      0.00000000	      0.00000000	      0.00000000
      0.06000000	      0.00000000	     -0.00000000	      0.00000000	      0.00000000	      0.00000000	      0.00000000	      0.00000000	      0.00000000	      0.00000000	      0.02672040	     97.39282990	   -528.00402832	   -306.59455695	  -1198.36089466	      0.00000000	      0.00000000	      0.00000000	   3472.27131696	      1.04160512	    -95.36460886	   -476.06631470	   -330.44800807	   -602.40000039	      0.00000000	      0.00000000	     -0.00000000	  -4028.12956350	      0.00000000	     -0.00000000	      0.00000000	      0.00000000	      0.00000000	      0.00000000	      0.00000000	      0.00000000	      0.00000000
      0.07000000	      0.00000000	     -0.00000000	      0.00000000	      0.00000000	      0.00000000	      0.00000000	      0.00000000	      0.00000000	      0.00000000	      0.78218919	     97.91294098	   -533.08111572	   -308.35152458	  -1198.12312811	      0.00000000	      0.00000000	      0.00000000	   3264.09808871	      2.39518282	    -95.80879232	   -480.17514038	   -331.60417389	   -602.69851302	      0.00000000	      0.00000000	     -0.00000000	  -4046.56760633	      0.00000000	     -0.00000000	      0.00000000	      0.00000000	      0.00000000	      0.00000000	      0.00000000	      0.00000000	      0.00000000
      0.08000000	      0.00000000	     -0.00000000	      0.00000000	      0.00000000	      0.00000000	      0.00000000	      0.00000000	      0.00000000	      0.00000000	      1.18030715	     98.00234222	   -536.18115234	   -309.14206825	  -1197.97008193	      0.00000000	      0.00000000	      0.00000000	   3286.01489375	      3.16988987	    -96.13916043	   -481.73599243	   -333.04067111	   -603.51289352	      0.00000000	      0.00000000	     -0.00000000	  -4086.08796018	      0.00000000	     -0.00000000	      0.00000000	      0.00000000	      0.00000000	      0.00000000	      0.00000000	      0.00000000	      0.00000000
      0.09000000	      0.00000000	     -0.00000000	      0.00000000	      0.00000000	      0.00000000	      0.00000000	      0.00000000	      0.00000000	      0.00000000	      1.26940477	     98.39996338	   -537.97406006	   -309.82264938	  -1197.24048081	      0.00000000	      0.00000000	      0.00000000	   3236.52046851	      4.30123208	    -95.64994087	   -482.87670898	   -333.76648362	   -603.77915769	      0.00000000	      0.00000000	     -0.00000000	  -4059.93386535	      0.00000000	     -0.00000000	      0.00000000	      0.00000000	      0.00000000	      0.00000000	      0.00000000	      0.00000000	      0.00000000
      0.10000000	      0.00000000	     -0.00000000	      0.00000000	      0.00000000	      0.00000000	      0.00000000	      0.00000000	      0.00000000	      0.00000000	      1.71076095	     98.02312469	   -538.74230957	   -309.88778344	  -1198.31494636	      0.00000000	      0.00000000	      0.00000000	   3352.50546259	      5.23096489	    -95.52138565	   -483.56332397	   -334.30023291	   -604.13035670	      0.00000000	      0.00000000	     -0.00000000	  -3962.04651204	      0.00000000	     -0.00000000	      0.00000000	      0.00000000	      0.00000000	      0.00000000	      0.00000000	      0.00000000	      0.00000000
      0.11000000	      0.00000000	     -0.00000000	      0.00000000	      0.00000000	      0.00000000	      0.00000000	      0.00000000	      0.00000000	      0.00000000	      0.78268725	     97.25308990	   -538.11938477	   -310.11568246	  -1198.39776883	      0.00000000	     -0.00000000	      0.00000000	   3147.87793461	      6.09626225	    -95.09435326	   -483.93777466	   -335.04879574	   -604.27399565	      0.00000000	      0.00000000	     -0.00000000	  -4048.81660165	      0.00000000	     -0.00000000	      0.00000000	      0.00000000	      0.00000000	      0.00000000	      0.00000000	      0.00000000	      0.00000000
      0.12000000	      0.00000000	     -0.00000000	      0.00000000	      0.00000000	      0.00000000	      0.00000000	      0.00000000	      0.00000000	      0.00000000	     -0.31669673	     97.00284576	   -534.29064941	   -310.26438521	  -1198.25738095	      0.00000000	      0.00000000	      0.00000000	   3095.06540281	      6.96578675	    -94.83242096	   -482.52752686	   -336.22875546	   -604.96105584	      0.00000000	      0.00000000	     -0.00000000	  -4141.50523351	      0.00000000	     -0.00000000	      0.00000000	      0.00000000	      0.00000000	      0.00000000	      0.00000000	      0.00000000	      0.00000000
      0.13000000	      0.00000000	     -0.00000000	      0.00000000	      0.00000000	      0.00000000	      0.00000000	      0.00000000	      0.00000000	      0.00000000	     -1.15973663	     96.64665985	   -532.66967773	   -310.29171768	  -1198.38219877	      0.00000000	      0.00000000	      0.00000000	   2936.88023521	      7.16895181	    -94.79457918	   -480.31466675	   -336.58067972	   -605.32031110	      0.00000000	      0.00000000	     -0.00000000	  -4029.45256891	      0.00000000	     -0.00000000	      0.00000000	      0.00000000	      0.00000000	      0.00000000	      0.00000000	      0.00000000	      0.00000000
